# xmcd
#
# Track frame offsets:
#	150
#	14212
#	32249
#	50061
#	68923
#	83210
#	98247
#	113659
#	130421
#	144258
#	160420
#	175757
#	196644
#	214681
#	230318
#	245205
#	260917
#	280229
#	311091
#	325978
#
# Disc length: 4527 seconds
#
# Revision: 1
# Processed by: cddbd v1.5.2PL0 Copyright (c) Steve Scherf et al.
# Submitted via: EasyCDDAExtractor 6.2.0.3
#
DISCID=2e11ad14
DTITLE=Various Artist - Promo Only Country Radio - 2008 - 05
DYEAR=2008
DGENRE=Country
TTITLE0=Toby Keith - She's A Hottie @
TTITLE1=Carrie Underwood - Last Name (Album Version)
TTITLE2=Montgomery Gentry - Back When I Knew It All
TTITLE3=Kenny Chesney - Better As A Memory (Album Version)
TTITLE4=Luke Bryan - Country Man
TTITLE5=Tim McGraw - Kristofferson
TTITLE6=Kristina Cornell - That's The Way It Feels
TTITLE7=Rodney Atkins - Invisibly Shaken
TTITLE8=Will Peppers - Cheaper Than A Shrink
TTITLE9=Heidi Newfield - Johnny and June
TTITLE10=Gary Allan - Learning How To Bend
TTITLE11=Donna Ulisse - I'm Calling Heaven Down (Album Version) @
TTITLE12=Gary Louris - Omaha Nights (Album Version)
TTITLE13=Kate Russell - The Man He Could Be
TTITLE14=Julio Iglesias Jr. - The Way I Want You
TTITLE15=Petrella - I Want To Know You Forever
TTITLE16=Dana Walker - She Knows The Pain By Heart @
TTITLE17=American Babies - American Babies (Album Version)
TTITLE18=The Wood Brothers - Lovin' Arms (Album Version) @
TTITLE19=Ms. Scooter Lee - Speak To The Sky (Album Version)
EXTD=
EXTT0=
EXTT1=
EXTT2=
EXTT3=
EXTT4=
EXTT5=
EXTT6=
EXTT7=
EXTT8=
EXTT9=
EXTT10=
EXTT11=
EXTT12=
EXTT13=
EXTT14=
EXTT15=
EXTT16=
EXTT17=
EXTT18=
EXTT19=
PLAYORDER=
